<?xml version="1.0" encoding="utf-8"?>
<!-- Generator: Adobe Illustrator 23.1.0, SVG Export Plug-In . SVG Version: 6.00 Build 0)  -->
<svg version="1.1" id="Layer_1" xmlns="http://www.w3.org/2000/svg" xmlns:xlink="http://www.w3.org/1999/xlink" x="0px" y="0px"
	 viewBox="0 0 38 38" style="enable-background:new 0 0 38 38;" xml:space="preserve">
<style type="text/css">
	.st0{fill:#998C88;}
</style>
<g id="Group_58" transform="translate(57.813 492.57)">
	<g>
		<path id="Icon_ionic-ios-search" class="st0" d="M-28.87-464.87l-5.69-5.74c2.78-3.5,2.19-8.6-1.31-11.38
			c-3.5-2.78-8.6-2.19-11.38,1.31c-2.78,3.5-2.19,8.6,1.31,11.38c2.98,2.36,7.2,2.34,10.15-0.07l5.65,5.7
			c0.33,0.35,0.88,0.36,1.24,0.03C-28.55-463.97-28.54-464.52-28.87-464.87z M-40.92-469.3c-3.53,0-6.4-2.87-6.4-6.4
			c0-3.53,2.87-6.4,6.4-6.4c3.53,0,6.4,2.87,6.4,6.4c0,1.7-0.67,3.32-1.88,4.52C-37.59-469.97-39.22-469.29-40.92-469.3z"/>
	</g>
</g>
</svg>
